<?xml version="1.0" encoding="utf-8"?>
<!-- Generator: Adobe Illustrator 27.4.1, SVG Export Plug-In . SVG Version: 6.00 Build 0)  -->
<svg version="1.1" id="Layer_1" xmlns="http://www.w3.org/2000/svg" xmlns:xlink="http://www.w3.org/1999/xlink" x="0px" y="0px"
	 viewBox="0 0 500 500" style="enable-background:new 0 0 500 500;" xml:space="preserve">
<style type="text/css">
	.st0{fill:#FFFFFF;}
</style>
<g>
	<polygon class="st0" points="73,79 73,104 134,104 134,208 159,208 159,104 159,79 134,79 	"/>
	<rect x="134" y="228" class="st0" width="25" height="193"/>
	<rect x="337" y="79" class="st0" width="25" height="193"/>
	<rect x="202" y="79" class="st0" width="25" height="129"/>
	<rect x="269" y="228" class="st0" width="25" height="193"/>
	<rect x="269" y="78" class="st0" width="25" height="129"/>
	<rect x="202" y="293" class="st0" width="25" height="129"/>
	<polygon class="st0" points="362,397 362,293 337,293 337,397 337,422 362,422 427,422 427,397 	"/>
	<rect x="202" y="228" class="st0" width="25" height="44"/>
</g>
</svg>
